#!OML:ASF I:\Actors\actors\Patient Classification 1\Patient 1\Session 1\Subject1.ASF
:FULLY-SPECIFIED
:DEGREES
904
root 0.0893384 17.7193 7.82381 27.3743 -25.4712 -9.68691
lowerback 15.463 -1.18546 4.17607
upperback 9.35107 -1.20187 5.09295
thorax 1.31634 -0.667746 3.17094
lowerneck 10.0833 -17.8102 -13.7792
upperneck 12.6241 -26.8905 19.6086
head 6.8501 -13.384 6.70797
rclavicle 3.25013e-014 1.58034e-014
rhumerus 68.8756 24.4458 -9.0778
rradius 34.861
rwrist -11.384
rhand 59.7503 287.306
rfingers 7.12502
rthumb 74.5445 -41.1627
lclavicle 3.25013e-014 1.58034e-014
lhumerus -19.7281 -55.3209 93.5754
lradius 97.1224
lwrist 31.63
lhand -15.9543 -1.22628
lfingers 7.12502
lthumb 10.2442 28.5043
rfemur -35.1696 26.9118 12.846
rtibia 10.9263
rfoot -4.81161 -8.8714
rtoes -10.0965
lfemur -14.8418 -35.0262 -0.487466
ltibia -2.30747
lfoot -57.2641 57.074
ltoes 37.077
905
root 0.0856248 17.7196 7.81895 27.3646 -25.2859 -9.72801
lowerback 15.4918 -1.10581 4.36815
upperback 9.39639 -1.07534 4.95207
thorax 1.3407 -0.591745 2.89592
lowerneck 10.0341 -18.0506 -13.2851
upperneck 12.6968 -27.1114 19.2275
head 6.79688 -13.471 6.49537
rclavicle 3.57812e-014 -6.5102e-014
rhumerus 69.8943 25.4949 -3.48995
rradius 38.1024
rwrist -16.3727
rhand 59.8086 287.822
rfingers 7.12502
rthumb 74.558 -40.4415
lclavicle 3.57812e-014 -6.5102e-014
lhumerus -19.5313 -55.8327 93.1692
lradius 97.0814
lwrist 31.4946
lhand -15.8551 -0.835481
lfingers 7.12502
lthumb 10.3399 28.8903
rfemur -35.1273 26.9135 12.9323
rtibia 10.9211
rfoot -4.86034 -8.96111
rtoes -10.0517
lfemur -14.9049 -35.1191 -0.330008
ltibia -2.29323
lfoot -56.9823 57.171
ltoes 36.8019
906
root 0.083364 17.7197 7.81547 27.3289 -25.0458 -9.79322
lowerback 15.6263 -1.2296 3.98076
upperback 9.38529 -1.27207 5.17867
thorax 1.27499 -0.713926 3.3863
lowerneck 9.91304 -18.0196 -13.5902
upperneck 12.9285 -27.044 18.73
head 6.84705 -13.4407 6.36921
rclavicle 5.68524e-014 -1.5704e-014
rhumerus 72.363 26.266 3.35971
rradius 41.6123
rwrist -22.4908
rhand 60.0015 288.153
rfingers 7.12502
rthumb 74.6011 -39.4287
lclavicle 5.68524e-014 -1.5704e-014
lhumerus -19.7696 -55.1459 93.3983
lradius 97.0227
lwrist 31.4317
lhand -15.8381 -0.61759
lfingers 7.12502
lthumb 10.3563 29.1074
rfemur -35.0219 26.8463 13.102
rtibia 10.9291
rfoot -4.92003 -9.01459
rtoes -9.62132
lfemur -14.9166 -35.5936 -0.115686
ltibia -2.31972
lfoot -57.2744 57.3766
ltoes 36.7442
907
root 0.0798537 17.7194 7.81308 27.3271 -24.7887 -9.90724
lowerback 15.6978 -1.29835 3.87239
upperback 9.37263 -1.36743 5.26827
thorax 1.23202 -0.768941 3.55867
lowerneck 9.88258 -18.0721 -13.7337
upperneck 13.0793 -27.1176 18.5352
head 6.90533 -13.4776 6.30716
rclavicle 2.37548e-014 -6.74874e-014
rhumerus 73.1317 26.7503 6.38575
rradius 44.5618
rwrist -26.0792
rhand 60.8186 287.654
rfingers 7.12502
rthumb 74.7588 -37.0005
lclavicle 2.37548e-014 -6.74874e-014
lhumerus -20.0494 -54.8588 93.538
lradius 96.9963
lwrist 31.5759
lhand -15.8027 -0.426857
lfingers 7.12502
lthumb 10.3905 29.2964
rfemur -34.9299 26.7727 13.3299
rtibia 10.934
rfoot -4.97193 -9.05848
rtoes -9.28402
lfemur -14.916 -36.3161 0.207073
ltibia -2.41645
lfoot -58.1469 57.6279
ltoes 36.9413
908
root 0.0746132 17.7183 7.80975 27.3928 -24.5377 -10.1156
lowerback 15.7164 -1.33893 3.95189
upperback 9.35432 -1.40628 5.28244
thorax 1.2033 -0.785353 3.53529
lowerneck 10.0455 -18.0865 -13.833
upperneck 13.0402 -27.1719 18.6668
head 6.91016 -13.5182 6.36762
rclavicle 4.96962e-015 -1.02772e-013
rhumerus 72.0213 27.3815 4.91795
rradius 46.9133
rwrist -26.0168
rhand 62.344 285.455
rfingers 7.12502
rthumb 74.9411 -33.6039
lclavicle 4.96962e-015 -1.02772e-013
lhumerus -20.4642 -54.7694 93.6765
lradius 97.0314
lwrist 31.7695
lhand -15.8153 -0.309749
lfingers 7.12502
lthumb 10.3783 29.4141
rfemur -34.8942 26.7327 13.6387
rtibia 10.9486
rfoot -4.98876 -9.09481
rtoes -9.16438
lfemur -14.9482 -36.9166 0.659578
ltibia -2.51898
lfoot -59.0058 57.7834
ltoes 37.1754
